<svg aria-hidden="true" style="position: absolute; width: 0; height: 0; overflow: hidden;" version="1.1" xmlns="http://www.w3.org/2000/svg" xmlns:xlink="http://www.w3.org/1999/xlink">
<defs>
<symbol id="icon-feather" viewBox="0 0 24 24">
<title>feather</title>
<path d="M20.9 3c-2.7-2.7-7.2-2.7-9.9 0l-6.7 6.8c-0.2 0.2-0.3 0.4-0.3 0.7v8.1l-2.7 2.7c-0.4 0.4-0.4 1 0 1.4 0.2 0.2 0.4 0.3 0.7 0.3s0.5-0.1 0.7-0.3l2.7-2.7h8.1c0.3 0 0.5-0.1 0.7-0.3l6.7-6.8c2.8-2.7 2.8-7.1 0-9.9zM13.1 18h-5.7l2-2h5.7l-2 2zM19.5 11.5c0 0 0 0 0 0l-2.4 2.5c0 0 0 0-0.1 0h-5.6l5.3-5.3c0.4-0.4 0.4-1 0-1.4s-1-0.4-1.4 0l-7 7c0 0 0 0 0 0l-2.3 2.3v-5.7l6.5-6.5c2-2 5.1-2 7.1 0 1.9 2 1.9 5.2-0.1 7.1z"></path>
</symbol>
<symbol id="icon-linkedin" viewBox="0 0 24 24">
<title>linkedin</title>
<path d="M16 7c-3.9 0-7 3.1-7 7v7c0 0.6 0.4 1 1 1h4c0.6 0 1-0.4 1-1v-7c0-0.6 0.4-1 1-1s1 0.4 1 1v7c0 0.6 0.4 1 1 1h4c0.6 0 1-0.4 1-1v-7c0-3.9-3.1-7-7-7zM21 20h-2v-6c0-1.7-1.3-3-3-3s-3 1.3-3 3v6h-2v-6c0-2.8 2.2-5 5-5s5 2.2 5 5v6z"></path>
<path d="M6 8h-4c-0.6 0-1 0.4-1 1v12c0 0.6 0.4 1 1 1h4c0.6 0 1-0.4 1-1v-12c0-0.6-0.4-1-1-1zM5 20h-2v-10h2v10z"></path>
<path d="M4 1c-1.7 0-3 1.3-3 3s1.3 3 3 3 3-1.3 3-3-1.3-3-3-3zM4 5c-0.6 0-1-0.4-1-1s0.4-1 1-1 1 0.4 1 1-0.4 1-1 1z"></path>
</symbol>
<symbol id="icon-user" viewBox="0 0 24 24">
<title>user</title>
<path d="M16 14h-8c-2.8 0-5 2.2-5 5v2c0 0.6 0.4 1 1 1s1-0.4 1-1v-2c0-1.7 1.3-3 3-3h8c1.7 0 3 1.3 3 3v2c0 0.6 0.4 1 1 1s1-0.4 1-1v-2c0-2.8-2.2-5-5-5z"></path>
<path d="M12 12c2.8 0 5-2.2 5-5s-2.2-5-5-5-5 2.2-5 5 2.2 5 5 5zM12 4c1.7 0 3 1.3 3 3s-1.3 3-3 3-3-1.3-3-3 1.3-3 3-3z"></path>
</symbol>
</defs>
</svg>
