<svg aria-hidden="true" style="position: absolute; width: 0; height: 0; overflow: hidden;" version="1.1" xmlns="http://www.w3.org/2000/svg" xmlns:xlink="http://www.w3.org/1999/xlink">
<defs>
<symbol id="icon-feather" viewBox="0 0 24 24">
<title>feather</title>
<path d="M20.9 3c-2.7-2.7-7.2-2.7-9.9 0l-6.7 6.8c-0.2 0.2-0.3 0.4-0.3 0.7v8.1l-2.7 2.7c-0.4 0.4-0.4 1 0 1.4 0.2 0.2 0.4 0.3 0.7 0.3s0.5-0.1 0.7-0.3l2.7-2.7h8.1c0.3 0 0.5-0.1 0.7-0.3l6.7-6.8c2.8-2.7 2.8-7.1 0-9.9zM13.1 18h-5.7l2-2h5.7l-2 2zM19.5 11.5c0 0 0 0 0 0l-2.4 2.5c0 0 0 0-0.1 0h-5.6l5.3-5.3c0.4-0.4 0.4-1 0-1.4s-1-0.4-1.4 0l-7 7c0 0 0 0 0 0l-2.3 2.3v-5.7l6.5-6.5c2-2 5.1-2 7.1 0 1.9 2 1.9 5.2-0.1 7.1z"></path>
</symbol>
<symbol id="icon-linkedin" viewBox="0 0 24 24">
<title>linkedin</title>
<path d="M16 7c-3.9 0-7 3.1-7 7v7c0 0.6 0.4 1 1 1h4c0.6 0 1-0.4 1-1v-7c0-0.6 0.4-1 1-1s1 0.4 1 1v7c0 0.6 0.4 1 1 1h4c0.6 0 1-0.4 1-1v-7c0-3.9-3.1-7-7-7zM21 20h-2v-6c0-1.7-1.3-3-3-3s-3 1.3-3 3v6h-2v-6c0-2.8 2.2-5 5-5s5 2.2 5 5v6z"></path>
<path d="M6 8h-4c-0.6 0-1 0.4-1 1v12c0 0.6 0.4 1 1 1h4c0.6 0 1-0.4 1-1v-12c0-0.6-0.4-1-1-1zM5 20h-2v-10h2v10z"></path>
<path d="M4 1c-1.7 0-3 1.3-3 3s1.3 3 3 3 3-1.3 3-3-1.3-3-3-3zM4 5c-0.6 0-1-0.4-1-1s0.4-1 1-1 1 0.4 1 1-0.4 1-1 1z"></path>
</symbol>
<symbol id="icon-user" viewBox="0 0 24 24">
<title>user</title>
<path d="M16 14h-8c-2.8 0-5 2.2-5 5v2c0 0.6 0.4 1 1 1s1-0.4 1-1v-2c0-1.7 1.3-3 3-3h8c1.7 0 3 1.3 3 3v2c0 0.6 0.4 1 1 1s1-0.4 1-1v-2c0-2.8-2.2-5-5-5z"></path>
<path d="M12 12c2.8 0 5-2.2 5-5s-2.2-5-5-5-5 2.2-5 5 2.2 5 5 5zM12 4c1.7 0 3 1.3 3 3s-1.3 3-3 3-3-1.3-3-3 1.3-3 3-3z"></path>
</symbol>
<symbol id="icon-globe" viewBox="0 0 24 24">
<title>globe</title>
<path d="M12 1c-6.1 0-11 4.9-11 11s4.9 11 11 11 11-4.9 11-11-4.9-11-11-11zM20.9 11h-4c-0.2-2.8-1.1-5.4-2.7-7.7 3.6 0.9 6.3 4 6.7 7.7zM9.1 13h5.9c-0.3 2.7-1.3 5.3-2.9 7.4-1.8-2.1-2.8-4.7-3-7.4zM9.1 11c0.3-2.7 1.3-5.3 2.9-7.4 1.7 2.2 2.7 4.8 2.9 7.4h-5.8zM9.7 3.3c-1.5 2.3-2.4 4.9-2.6 7.7h-4c0.4-3.7 3.1-6.8 6.6-7.7zM3.1 13h4c0.2 2.8 1.1 5.4 2.7 7.7-3.6-0.9-6.3-4-6.7-7.7zM14.3 20.7c1.5-2.3 2.4-4.9 2.7-7.7h4c-0.5 3.7-3.2 6.8-6.7 7.7z"></path>
</symbol>
<symbol id="icon-twitter" viewBox="0 0 24 24">
<title>twitter</title>
<path d="M23.6 2.2c-0.3-0.2-0.8-0.2-1.1 0-0.7 0.5-1.5 0.9-2.3 1.2-2-1.8-5.1-1.9-7.2-0.1-1.3 1.1-2 2.6-2 4.2-2.9-0.2-5.5-1.7-7.2-4.1-0.2-0.3-0.5-0.4-0.9-0.4s-0.7 0.3-0.8 0.6c-0.1 0.1-1.1 2.5-1 5.4 0.1 2.5 1.1 5.7 4.8 8-1.5 0.7-3.2 1-4.9 1-0.4 0-0.9 0.3-1 0.7s0.1 0.9 0.5 1.1c2.5 1.4 5.2 2.1 7.7 2.1s4.9-0.6 7.1-1.9c4.3-2.4 6.7-7 6.7-12.5 0-0.2 0-0.3 0-0.5 1-1.1 1.7-2.4 2-3.8 0.1-0.4-0.1-0.8-0.4-1zM20.2 6c-0.2 0.2-0.3 0.6-0.3 0.9 0.1 0.2 0.1 0.4 0.1 0.6 0 4.8-2.1 8.7-5.7 10.8-2.8 1.6-6.1 2-9.4 1.2 1.3-0.4 2.5-0.9 3.6-1.7 0.4-0.2 0.5-0.5 0.5-0.9s-0.3-0.7-0.6-0.8c-5.8-2.6-5.6-7.5-5-10 2.2 2.2 5.3 3.5 8.6 3.4 0.5 0 1-0.5 1-1v-1c0-1 0.4-2 1.2-2.7 1.4-1.3 3.7-1.1 4.9 0.3 0.3 0.3 0.7 0.4 1 0.3 0.2-0.1 0.5-0.1 0.7-0.2-0.2 0.3-0.4 0.5-0.6 0.8z"></path>
</symbol>
<symbol id="icon-github" viewBox="0 0 32 32">
<title>github</title>
<path d="M16 0.395c-8.836 0-16 7.163-16 16 0 7.069 4.585 13.067 10.942 15.182 0.8 0.148 1.094-0.347 1.094-0.77 0-0.381-0.015-1.642-0.022-2.979-4.452 0.968-5.391-1.888-5.391-1.888-0.728-1.849-1.776-2.341-1.776-2.341-1.452-0.993 0.11-0.973 0.11-0.973 1.606 0.113 2.452 1.649 2.452 1.649 1.427 2.446 3.743 1.739 4.656 1.33 0.143-1.034 0.558-1.74 1.016-2.14-3.554-0.404-7.29-1.777-7.29-7.907 0-1.747 0.625-3.174 1.649-4.295-0.166-0.403-0.714-2.030 0.155-4.234 0 0 1.344-0.43 4.401 1.64 1.276-0.355 2.645-0.532 4.005-0.539 1.359 0.006 2.729 0.184 4.008 0.539 3.054-2.070 4.395-1.64 4.395-1.64 0.871 2.204 0.323 3.831 0.157 4.234 1.026 1.12 1.647 2.548 1.647 4.295 0 6.145-3.743 7.498-7.306 7.895 0.574 0.497 1.085 1.47 1.085 2.963 0 2.141-0.019 3.864-0.019 4.391 0 0.426 0.288 0.925 1.099 0.768 6.354-2.118 10.933-8.113 10.933-15.18 0-8.837-7.164-16-16-16z"></path>
</symbol>
<symbol id="icon-linkedin2" viewBox="0 0 32 32">
<title>linkedin2</title>
<path d="M29 0h-26c-1.65 0-3 1.35-3 3v26c0 1.65 1.35 3 3 3h26c1.65 0 3-1.35 3-3v-26c0-1.65-1.35-3-3-3zM12 26h-4v-14h4v14zM10 10c-1.106 0-2-0.894-2-2s0.894-2 2-2c1.106 0 2 0.894 2 2s-0.894 2-2 2zM26 26h-4v-8c0-1.106-0.894-2-2-2s-2 0.894-2 2v8h-4v-14h4v2.481c0.825-1.131 2.087-2.481 3.5-2.481 2.488 0 4.5 2.238 4.5 5v9z"></path>
</symbol>
<symbol id="icon-chevrons-right" viewBox="0 0 24 24">
<title>chevrons-right</title>
<path d="M18.7 11.3l-5-5c-0.4-0.4-1-0.4-1.4 0s-0.4 1 0 1.4l4.3 4.3-4.3 4.3c-0.4 0.4-0.4 1 0 1.4 0.2 0.2 0.5 0.3 0.7 0.3s0.5-0.1 0.7-0.3l5-5c0.4-0.4 0.4-1 0-1.4z"></path>
<path d="M11.7 11.3l-5-5c-0.4-0.4-1-0.4-1.4 0s-0.4 1 0 1.4l4.3 4.3-4.3 4.3c-0.4 0.4-0.4 1 0 1.4 0.2 0.2 0.4 0.3 0.7 0.3s0.5-0.1 0.7-0.3l5-5c0.4-0.4 0.4-1 0-1.4z"></path>
</symbol>
<symbol id="icon-git-branch" viewBox="0 0 24 24">
<title>git-branch</title>
<path d="M22 6c0-2.2-1.8-4-4-4s-4 1.8-4 4c0 1.8 1.3 3.4 3 3.8-0.4 3.7-3.4 6.7-7.1 7.1-0.4-1.4-1.5-2.5-2.8-2.8v-11.1c0-0.6-0.4-1-1-1s-1.1 0.4-1.1 1v11.1c-1.7 0.4-3 2-3 3.9 0 2.2 1.8 4 4 4 1.9 0 3.4-1.3 3.9-3 4.8-0.4 8.7-4.3 9.1-9.1 1.7-0.5 3-2 3-3.9zM6 20c-1.1 0-2-0.9-2-2s0.9-2 2-2 2 0.9 2 2-0.9 2-2 2zM18 8c-1.1 0-2-0.9-2-2s0.9-2 2-2 2 0.9 2 2-0.9 2-2 2z"></path>
</symbol>
<symbol id="icon-star" viewBox="0 0 24 24">
<title>star</title>
<path d="M23 9c-0.1-0.4-0.4-0.6-0.8-0.7l-6.4-0.9-2.9-5.8c-0.3-0.7-1.5-0.7-1.8 0l-2.9 5.7-6.3 1c-0.4 0-0.7 0.3-0.9 0.7-0.1 0.4 0 0.8 0.3 1l4.6 4.5-1.1 6.4c-0.1 0.4 0.1 0.8 0.4 1s0.7 0.3 1.1 0.1l5.7-3 5.7 3c0.2 0 0.3 0 0.5 0s0.4-0.1 0.6-0.2c0.3-0.2 0.5-0.6 0.4-1l-1.1-6.4 4.6-4.5c0.3-0.2 0.4-0.6 0.3-0.9zM16.3 13.4c-0.2 0.3-0.3 0.6-0.3 0.9l0.8 4.9-4.4-2.3c-0.3-0.2-0.6-0.2-0.9 0l-4.4 2.3 0.9-4.9c0-0.3-0.1-0.6-0.3-0.9l-3.6-3.4 4.9-0.7c0.3 0 0.6-0.3 0.8-0.5l2.2-4.5 2.2 4.4c0.1 0.3 0.4 0.5 0.8 0.5l4.9 0.7-3.6 3.5z"></path>
</symbol>
<symbol id="icon-circle" viewBox="0 0 24 28">
<title>circle</title>
<path d="M24 14c0 6.625-5.375 12-12 12s-12-5.375-12-12 5.375-12 12-12 12 5.375 12 12z"></path>
</symbol>
<symbol id="icon-edit-3" viewBox="0 0 24 24">
<title>edit-3</title>
<path d="M3 18h4c0.3 0 0.5-0.1 0.7-0.3l11-11c0.4-0.4 0.4-1 0-1.4l-4-4c-0.4-0.4-1-0.4-1.4 0l-11 11c-0.2 0.2-0.3 0.4-0.3 0.7v4c0 0.6 0.4 1 1 1zM4 13.4l10-10 2.6 2.6-10 10h-2.6v-2.6z"></path>
<path d="M21 21h-18c-0.6 0-1 0.4-1 1s0.4 1 1 1h18c0.6 0 1-0.4 1-1s-0.4-1-1-1z"></path>
</symbol>
</defs>
</svg>
